# xmcd CD database file
#
# Track frame offsets:
#	150
#	14354
#	41744
#	61922
#	79501
#	119506
#	135975
#	152373
#	167193
#	186254
#	198878
#
# Disc length: 2970 seconds
#
# Revision: 4
# Processed by: cddbd v1.5.2PL0 Copyright (c) Steve Scherf et al.
# Submitted via: CDex 1.50
#
DISCID=860b980b
DTITLE=Delbert McClinton - Live CD01
DYEAR=2003
DGENRE=Blues
TTITLE0=Old Weakness (Comin' On Strong)
TTITLE1=Leap Of Faith
TTITLE2=I'm With You
TTITLE3=I Wanna Thank You Baby
TTITLE4=I Want To Love You
TTITLE5=Smooth Talk
TTITLE6=Maybe Someday Baby
TTITLE7=Don't Want To Love You
TTITLE8=New York City
TTITLE9=Squeeze Me In
TTITLE10=I've Got Dreams To Remember
EXTD=THE BAND: Delbert McClinton - Vocals and harmonica, Kevin McKendree - Keyboards, George Hawkins - Bass, Rob McNelley - Guitars, Lynn Williams - Drums, Terry Townson - Trumpet, Don Wise - Saxophone. Recorded at the Bergen Musicfest - Ole Blues 2003 a
EXTD=t Teatergarajen. Executive Producers: Wendy Goldstein and Cameron Stang. Producer: Delbert McClinton. Recorded by Njaal Oyvind Mangersnes and Arild Grindheim for NRK P1. Mixed by Doug Sax and Robert Hadley at The Mastering Lab. Production Coordinato
EXTD=r: Regena Warden. NEW WEST NW6048. YEAR: 2003
EXTT0=
EXTT1=
EXTT2=
EXTT3=
EXTT4=
EXTT5=
EXTT6=
EXTT7=
EXTT8=
EXTT9=
EXTT10=
PLAYORDER=
